<mxfile host="app.diagrams.net" agent="Mozilla/5.0 (Windows NT 10.0; Win64; x64) AppleWebKit/537.36 (KHTML, like Gecko) Chrome/130.0.0.0 Safari/537.36" version="24.8.3">
  <diagram id="C5RBs43oDa-KdzZeNtuy" name="Page-1">
    <mxGraphModel dx="3388" dy="923" grid="1" gridSize="10" guides="1" tooltips="1" connect="1" arrows="1" fold="1" page="1" pageScale="1" pageWidth="827" pageHeight="1169" math="0" shadow="0">
      <root>
        <mxCell id="WIyWlLk6GJQsqaUBKTNV-0" />
        <mxCell id="WIyWlLk6GJQsqaUBKTNV-1" parent="WIyWlLk6GJQsqaUBKTNV-0" />
        <mxCell id="eYlgFXyIfjPkv886gNfy-71" style="edgeStyle=orthogonalEdgeStyle;rounded=0;orthogonalLoop=1;jettySize=auto;html=1;entryX=0.5;entryY=0;entryDx=0;entryDy=0;" edge="1" parent="WIyWlLk6GJQsqaUBKTNV-1" source="klTrbKSa8jeeAFxTV1Gi-0" target="eYlgFXyIfjPkv886gNfy-69">
          <mxGeometry relative="1" as="geometry" />
        </mxCell>
        <mxCell id="eYlgFXyIfjPkv886gNfy-98" value="Gas 0.0022 ETH" style="edgeLabel;html=1;align=center;verticalAlign=middle;resizable=0;points=[];" vertex="1" connectable="0" parent="eYlgFXyIfjPkv886gNfy-71">
          <mxGeometry x="-0.5159" y="3" relative="1" as="geometry">
            <mxPoint x="21" y="3" as="offset" />
          </mxGeometry>
        </mxCell>
        <mxCell id="klTrbKSa8jeeAFxTV1Gi-0" value="AIOZ-ERC20" style="whiteSpace=wrap;html=1;" parent="WIyWlLk6GJQsqaUBKTNV-1" vertex="1">
          <mxGeometry x="2100" y="562" width="120" height="60" as="geometry" />
        </mxCell>
        <mxCell id="eYlgFXyIfjPkv886gNfy-0" value="" style="html=1;points=[];perimeter=orthogonalPerimeter;fillColor=strokeColor;" vertex="1" parent="WIyWlLk6GJQsqaUBKTNV-1">
          <mxGeometry x="-1160" y="320" width="5" height="1080" as="geometry" />
        </mxCell>
        <mxCell id="eYlgFXyIfjPkv886gNfy-1" value="Actor" style="shape=umlActor;verticalLabelPosition=bottom;verticalAlign=top;html=1;" vertex="1" parent="WIyWlLk6GJQsqaUBKTNV-1">
          <mxGeometry x="-1172.5" y="230" width="30" height="60" as="geometry" />
        </mxCell>
        <mxCell id="eYlgFXyIfjPkv886gNfy-2" value="BlockChain" style="shape=umlLifeline;perimeter=lifelinePerimeter;whiteSpace=wrap;html=1;container=1;dropTarget=0;collapsible=0;recursiveResize=0;outlineConnect=0;portConstraint=eastwest;newEdgeStyle={&quot;edgeStyle&quot;:&quot;elbowEdgeStyle&quot;,&quot;elbow&quot;:&quot;vertical&quot;,&quot;curved&quot;:0,&quot;rounded&quot;:0};" vertex="1" parent="WIyWlLk6GJQsqaUBKTNV-1">
          <mxGeometry x="-950" y="270" width="100" height="1130" as="geometry" />
        </mxCell>
        <mxCell id="eYlgFXyIfjPkv886gNfy-3" value="" style="html=1;points=[[0,0,0,0,5],[0,1,0,0,-5],[1,0,0,0,5],[1,1,0,0,-5]];perimeter=orthogonalPerimeter;outlineConnect=0;targetShapes=umlLifeline;portConstraint=eastwest;newEdgeStyle={&quot;curved&quot;:0,&quot;rounded&quot;:0};" vertex="1" parent="eYlgFXyIfjPkv886gNfy-2">
          <mxGeometry x="45" y="90" width="10" height="1040" as="geometry" />
        </mxCell>
        <mxCell id="eYlgFXyIfjPkv886gNfy-14" value="Add tx to new blocks" style="html=1;align=left;spacingLeft=2;endArrow=block;rounded=0;edgeStyle=orthogonalEdgeStyle;curved=0;rounded=0;" edge="1" parent="eYlgFXyIfjPkv886gNfy-2">
          <mxGeometry relative="1" as="geometry">
            <mxPoint x="50" y="120" as="sourcePoint" />
            <Array as="points">
              <mxPoint x="80" y="120" />
            </Array>
            <mxPoint x="54.99999999999977" y="150" as="targetPoint" />
          </mxGeometry>
        </mxCell>
        <mxCell id="eYlgFXyIfjPkv886gNfy-4" value="Payment Services" style="shape=umlLifeline;perimeter=lifelinePerimeter;whiteSpace=wrap;html=1;container=1;dropTarget=0;collapsible=0;recursiveResize=0;outlineConnect=0;portConstraint=eastwest;newEdgeStyle={&quot;edgeStyle&quot;:&quot;elbowEdgeStyle&quot;,&quot;elbow&quot;:&quot;vertical&quot;,&quot;curved&quot;:0,&quot;rounded&quot;:0};" vertex="1" parent="WIyWlLk6GJQsqaUBKTNV-1">
          <mxGeometry x="-662.5" y="270" width="100" height="1130" as="geometry" />
        </mxCell>
        <mxCell id="eYlgFXyIfjPkv886gNfy-5" value="" style="html=1;points=[[0,0,0,0,5],[0,1,0,0,-5],[1,0,0,0,5],[1,1,0,0,-5]];perimeter=orthogonalPerimeter;outlineConnect=0;targetShapes=umlLifeline;portConstraint=eastwest;newEdgeStyle={&quot;curved&quot;:0,&quot;rounded&quot;:0};" vertex="1" parent="eYlgFXyIfjPkv886gNfy-4">
          <mxGeometry x="45" y="90" width="10" height="1040" as="geometry" />
        </mxCell>
        <mxCell id="eYlgFXyIfjPkv886gNfy-8" value="Send transaction" style="endArrow=open;startArrow=none;endFill=0;startFill=0;endSize=8;html=1;verticalAlign=bottom;dashed=1;labelBackgroundColor=none;rounded=0;exitX=0.7;exitY=0.071;exitDx=0;exitDy=0;exitPerimeter=0;" edge="1" parent="WIyWlLk6GJQsqaUBKTNV-1" target="eYlgFXyIfjPkv886gNfy-3">
          <mxGeometry width="160" relative="1" as="geometry">
            <mxPoint x="-1160" y="370.0000000000002" as="sourcePoint" />
            <mxPoint x="-934" y="370.0000000000002" as="targetPoint" />
          </mxGeometry>
        </mxCell>
        <mxCell id="eYlgFXyIfjPkv886gNfy-9" value="Get blocks" style="endArrow=open;startArrow=none;endFill=0;startFill=0;endSize=8;html=1;verticalAlign=bottom;dashed=1;labelBackgroundColor=none;rounded=0;" edge="1" parent="WIyWlLk6GJQsqaUBKTNV-1">
          <mxGeometry x="0.0009" width="160" relative="1" as="geometry">
            <mxPoint x="-618" y="530" as="sourcePoint" />
            <mxPoint x="-895" y="530" as="targetPoint" />
            <Array as="points">
              <mxPoint x="-875" y="530" />
            </Array>
            <mxPoint as="offset" />
          </mxGeometry>
        </mxCell>
        <mxCell id="eYlgFXyIfjPkv886gNfy-10" value="blocks response" style="endArrow=open;html=1;rounded=0;align=center;verticalAlign=bottom;dashed=1;endFill=0;labelBackgroundColor=none;" edge="1" parent="WIyWlLk6GJQsqaUBKTNV-1">
          <mxGeometry relative="1" as="geometry">
            <mxPoint x="-895.0000000000002" y="574.58" as="sourcePoint" />
            <mxPoint x="-613" y="574.58" as="targetPoint" />
          </mxGeometry>
        </mxCell>
        <mxCell id="eYlgFXyIfjPkv886gNfy-11" value="" style="resizable=0;html=1;align=center;verticalAlign=top;labelBackgroundColor=none;" connectable="0" vertex="1" parent="eYlgFXyIfjPkv886gNfy-10">
          <mxGeometry relative="1" as="geometry" />
        </mxCell>
        <mxCell id="eYlgFXyIfjPkv886gNfy-12" value="Success tx response" style="endArrow=open;startArrow=none;endFill=0;startFill=0;endSize=8;html=1;verticalAlign=bottom;dashed=1;labelBackgroundColor=none;rounded=0;entryX=0.367;entryY=0.182;entryDx=0;entryDy=0;entryPerimeter=0;" edge="1" parent="WIyWlLk6GJQsqaUBKTNV-1">
          <mxGeometry x="0.0026" width="160" relative="1" as="geometry">
            <mxPoint x="-906.8400000000003" y="450" as="sourcePoint" />
            <mxPoint x="-1160.0049999999999" y="450.0800000000004" as="targetPoint" />
            <Array as="points">
              <mxPoint x="-1096.84" y="450" />
            </Array>
            <mxPoint as="offset" />
          </mxGeometry>
        </mxCell>
        <mxCell id="eYlgFXyIfjPkv886gNfy-15" value="1. Find and validate tx with &lt;br&gt;recipient is user wallet address" style="html=1;align=left;spacingLeft=2;endArrow=block;rounded=0;edgeStyle=orthogonalEdgeStyle;curved=0;rounded=0;" edge="1" parent="WIyWlLk6GJQsqaUBKTNV-1">
          <mxGeometry x="-0.0054" relative="1" as="geometry">
            <mxPoint x="-610" y="585" as="sourcePoint" />
            <Array as="points">
              <mxPoint x="-580" y="585" />
              <mxPoint x="-580" y="620" />
            </Array>
            <mxPoint x="-607.5" y="620.0344827586209" as="targetPoint" />
            <mxPoint as="offset" />
          </mxGeometry>
        </mxCell>
        <mxCell id="eYlgFXyIfjPkv886gNfy-23" value="Database" style="shape=umlLifeline;perimeter=lifelinePerimeter;whiteSpace=wrap;html=1;container=1;dropTarget=0;collapsible=0;recursiveResize=0;outlineConnect=0;portConstraint=eastwest;newEdgeStyle={&quot;edgeStyle&quot;:&quot;elbowEdgeStyle&quot;,&quot;elbow&quot;:&quot;vertical&quot;,&quot;curved&quot;:0,&quot;rounded&quot;:0};" vertex="1" parent="WIyWlLk6GJQsqaUBKTNV-1">
          <mxGeometry x="-420" y="270" width="100" height="1130" as="geometry" />
        </mxCell>
        <mxCell id="eYlgFXyIfjPkv886gNfy-28" value="Repeat 5 seconds 1 turn" style="shape=umlFrame;whiteSpace=wrap;html=1;pointerEvents=0;recursiveResize=0;container=1;collapsible=0;width=170;" vertex="1" parent="WIyWlLk6GJQsqaUBKTNV-1">
          <mxGeometry x="-950" y="470" width="940" height="930" as="geometry" />
        </mxCell>
        <mxCell id="eYlgFXyIfjPkv886gNfy-31" value="Get TxIn is not withdraw" style="endArrow=open;startArrow=none;endFill=0;startFill=0;endSize=8;html=1;verticalAlign=bottom;dashed=1;labelBackgroundColor=none;rounded=0;" edge="1" parent="eYlgFXyIfjPkv886gNfy-28">
          <mxGeometry width="160" relative="1" as="geometry">
            <mxPoint x="342.5" y="249.71000000000004" as="sourcePoint" />
            <mxPoint x="575" y="249.71000000000004" as="targetPoint" />
          </mxGeometry>
        </mxCell>
        <mxCell id="eYlgFXyIfjPkv886gNfy-24" value="" style="html=1;points=[[0,0,0,0,5],[0,1,0,0,-5],[1,0,0,0,5],[1,1,0,0,-5]];perimeter=orthogonalPerimeter;outlineConnect=0;targetShapes=umlLifeline;portConstraint=eastwest;newEdgeStyle={&quot;curved&quot;:0,&quot;rounded&quot;:0};" vertex="1" parent="eYlgFXyIfjPkv886gNfy-28">
          <mxGeometry x="575" y="190" width="10" height="20" as="geometry" />
        </mxCell>
        <mxCell id="eYlgFXyIfjPkv886gNfy-32" value="" style="html=1;points=[[0,0,0,0,5],[0,1,0,0,-5],[1,0,0,0,5],[1,1,0,0,-5]];perimeter=orthogonalPerimeter;outlineConnect=0;targetShapes=umlLifeline;portConstraint=eastwest;newEdgeStyle={&quot;curved&quot;:0,&quot;rounded&quot;:0};" vertex="1" parent="eYlgFXyIfjPkv886gNfy-28">
          <mxGeometry x="575" y="250" width="10" height="30" as="geometry" />
        </mxCell>
        <mxCell id="eYlgFXyIfjPkv886gNfy-33" value="return response" style="endArrow=open;startArrow=none;endFill=0;startFill=0;endSize=8;html=1;verticalAlign=bottom;dashed=1;labelBackgroundColor=none;rounded=0;exitX=0;exitY=1;exitDx=0;exitDy=-5;exitPerimeter=0;" edge="1" parent="eYlgFXyIfjPkv886gNfy-28">
          <mxGeometry x="-0.0022" width="160" relative="1" as="geometry">
            <mxPoint x="575" y="210" as="sourcePoint" />
            <mxPoint x="342.5" y="210" as="targetPoint" />
            <mxPoint as="offset" />
          </mxGeometry>
        </mxCell>
        <mxCell id="eYlgFXyIfjPkv886gNfy-35" value="1. Validate data and send transaction to&amp;nbsp;&lt;br&gt;Primary wallet&lt;br&gt;2. Create txOut object" style="html=1;align=left;spacingLeft=2;endArrow=block;rounded=0;edgeStyle=orthogonalEdgeStyle;curved=0;rounded=0;" edge="1" parent="eYlgFXyIfjPkv886gNfy-28">
          <mxGeometry x="-0.0054" relative="1" as="geometry">
            <mxPoint x="343" y="370" as="sourcePoint" />
            <Array as="points">
              <mxPoint x="370" y="370" />
              <mxPoint x="370" y="405" />
            </Array>
            <mxPoint x="342.5" y="405.0344827586209" as="targetPoint" />
            <mxPoint as="offset" />
          </mxGeometry>
        </mxCell>
        <mxCell id="eYlgFXyIfjPkv886gNfy-36" value="Save txOut" style="endArrow=open;startArrow=none;endFill=0;startFill=0;endSize=8;html=1;verticalAlign=bottom;dashed=1;labelBackgroundColor=none;rounded=0;" edge="1" parent="eYlgFXyIfjPkv886gNfy-28" target="eYlgFXyIfjPkv886gNfy-37">
          <mxGeometry x="0.0026" width="160" relative="1" as="geometry">
            <mxPoint x="342.5" y="440" as="sourcePoint" />
            <mxPoint x="575" y="440" as="targetPoint" />
            <mxPoint as="offset" />
          </mxGeometry>
        </mxCell>
        <mxCell id="eYlgFXyIfjPkv886gNfy-38" value="WithDraw" style="shape=umlFrame;whiteSpace=wrap;html=1;pointerEvents=0;recursiveResize=0;container=1;collapsible=0;width=100;height=30;" vertex="1" parent="eYlgFXyIfjPkv886gNfy-28">
          <mxGeometry x="220" y="310" width="680" height="520" as="geometry" />
        </mxCell>
        <mxCell id="eYlgFXyIfjPkv886gNfy-37" value="" style="html=1;points=[[0,0,0,0,5],[0,1,0,0,-5],[1,0,0,0,5],[1,1,0,0,-5]];perimeter=orthogonalPerimeter;outlineConnect=0;targetShapes=umlLifeline;portConstraint=eastwest;newEdgeStyle={&quot;curved&quot;:0,&quot;rounded&quot;:0};" vertex="1" parent="eYlgFXyIfjPkv886gNfy-38">
          <mxGeometry x="355" y="130" width="10" height="20" as="geometry" />
        </mxCell>
        <mxCell id="eYlgFXyIfjPkv886gNfy-51" value="" style="html=1;points=[[0,0,0,0,5],[0,1,0,0,-5],[1,0,0,0,5],[1,1,0,0,-5]];perimeter=orthogonalPerimeter;outlineConnect=0;targetShapes=umlLifeline;portConstraint=eastwest;newEdgeStyle={&quot;curved&quot;:0,&quot;rounded&quot;:0};" vertex="1" parent="eYlgFXyIfjPkv886gNfy-38">
          <mxGeometry x="355" y="190" width="10" height="70" as="geometry" />
        </mxCell>
        <mxCell id="eYlgFXyIfjPkv886gNfy-55" value="list txOut" style="endArrow=open;startArrow=none;endFill=0;startFill=0;endSize=8;html=1;verticalAlign=bottom;dashed=1;labelBackgroundColor=none;rounded=0;exitX=0;exitY=1;exitDx=0;exitDy=-5;exitPerimeter=0;" edge="1" parent="eYlgFXyIfjPkv886gNfy-38">
          <mxGeometry width="160" relative="1" as="geometry">
            <mxPoint x="355" y="239.99999999999997" as="sourcePoint" />
            <mxPoint x="123" y="239.99999999999997" as="targetPoint" />
          </mxGeometry>
        </mxCell>
        <mxCell id="eYlgFXyIfjPkv886gNfy-58" value="" style="endArrow=open;startArrow=none;endFill=0;startFill=0;endSize=8;html=1;verticalAlign=bottom;dashed=1;labelBackgroundColor=none;rounded=0;" edge="1" parent="eYlgFXyIfjPkv886gNfy-38">
          <mxGeometry x="0.0026" width="160" relative="1" as="geometry">
            <mxPoint x="127" y="280" as="sourcePoint" />
            <mxPoint x="539.5" y="280" as="targetPoint" />
            <mxPoint as="offset" />
          </mxGeometry>
        </mxCell>
        <mxCell id="eYlgFXyIfjPkv886gNfy-59" value="&lt;span style=&quot;background-color: rgb(251, 251, 251);&quot;&gt;Get cache deposits&lt;/span&gt;" style="edgeLabel;html=1;align=center;verticalAlign=middle;resizable=0;points=[];" vertex="1" connectable="0" parent="eYlgFXyIfjPkv886gNfy-58">
          <mxGeometry x="0.1175" y="1" relative="1" as="geometry">
            <mxPoint x="-10" as="offset" />
          </mxGeometry>
        </mxCell>
        <mxCell id="eYlgFXyIfjPkv886gNfy-60" value="List deposits with credit" style="endArrow=open;startArrow=none;endFill=0;startFill=0;endSize=8;html=1;verticalAlign=bottom;dashed=1;labelBackgroundColor=none;rounded=0;" edge="1" parent="eYlgFXyIfjPkv886gNfy-38" source="eYlgFXyIfjPkv886gNfy-57">
          <mxGeometry width="160" relative="1" as="geometry">
            <mxPoint x="342" y="310" as="sourcePoint" />
            <mxPoint x="120" y="310" as="targetPoint" />
          </mxGeometry>
        </mxCell>
        <mxCell id="eYlgFXyIfjPkv886gNfy-61" value="Settle redit" style="html=1;align=left;spacingLeft=2;endArrow=block;rounded=0;edgeStyle=orthogonalEdgeStyle;curved=0;rounded=0;" edge="1" parent="eYlgFXyIfjPkv886gNfy-38">
          <mxGeometry x="-0.0054" relative="1" as="geometry">
            <mxPoint x="120.5" y="330" as="sourcePoint" />
            <Array as="points">
              <mxPoint x="147.5" y="330" />
              <mxPoint x="147.5" y="365" />
            </Array>
            <mxPoint x="120" y="365.0344827586209" as="targetPoint" />
            <mxPoint as="offset" />
          </mxGeometry>
        </mxCell>
        <mxCell id="eYlgFXyIfjPkv886gNfy-26" value="Create TxIn and save to DB" style="endArrow=open;html=1;rounded=0;align=center;verticalAlign=bottom;dashed=1;endFill=0;labelBackgroundColor=none;" edge="1" parent="WIyWlLk6GJQsqaUBKTNV-1">
          <mxGeometry relative="1" as="geometry">
            <mxPoint x="-607.5" y="660" as="sourcePoint" />
            <mxPoint x="-375" y="660" as="targetPoint" />
          </mxGeometry>
        </mxCell>
        <mxCell id="eYlgFXyIfjPkv886gNfy-27" value="" style="resizable=0;html=1;align=center;verticalAlign=top;labelBackgroundColor=none;" connectable="0" vertex="1" parent="eYlgFXyIfjPkv886gNfy-26">
          <mxGeometry relative="1" as="geometry" />
        </mxCell>
        <mxCell id="eYlgFXyIfjPkv886gNfy-34" value="list txIn" style="endArrow=open;startArrow=none;endFill=0;startFill=0;endSize=8;html=1;verticalAlign=bottom;dashed=1;labelBackgroundColor=none;rounded=0;exitX=0;exitY=1;exitDx=0;exitDy=-5;exitPerimeter=0;" edge="1" parent="WIyWlLk6GJQsqaUBKTNV-1" source="eYlgFXyIfjPkv886gNfy-32" target="eYlgFXyIfjPkv886gNfy-5">
          <mxGeometry width="160" relative="1" as="geometry">
            <mxPoint x="-600" y="770" as="sourcePoint" />
            <mxPoint x="-440" y="770" as="targetPoint" />
          </mxGeometry>
        </mxCell>
        <mxCell id="eYlgFXyIfjPkv886gNfy-50" value="" style="endArrow=open;startArrow=none;endFill=0;startFill=0;endSize=8;html=1;verticalAlign=bottom;dashed=1;labelBackgroundColor=none;rounded=0;" edge="1" parent="WIyWlLk6GJQsqaUBKTNV-1" source="eYlgFXyIfjPkv886gNfy-51" target="eYlgFXyIfjPkv886gNfy-23">
          <mxGeometry x="NaN" y="125" width="160" relative="1" as="geometry">
            <mxPoint x="-607.5" y="970" as="sourcePoint" />
            <mxPoint x="-375" y="970" as="targetPoint" />
            <mxPoint x="-120" y="-35" as="offset" />
          </mxGeometry>
        </mxCell>
        <mxCell id="eYlgFXyIfjPkv886gNfy-52" value="" style="endArrow=open;startArrow=none;endFill=0;startFill=0;endSize=8;html=1;verticalAlign=bottom;dashed=1;labelBackgroundColor=none;rounded=0;entryX=0;entryY=0;entryDx=0;entryDy=5;entryPerimeter=0;" edge="1" parent="WIyWlLk6GJQsqaUBKTNV-1" source="eYlgFXyIfjPkv886gNfy-4" target="eYlgFXyIfjPkv886gNfy-51">
          <mxGeometry x="0.0026" width="160" relative="1" as="geometry">
            <mxPoint x="-1337.5" y="1740" as="sourcePoint" />
            <mxPoint x="-1100" y="1740" as="targetPoint" />
            <mxPoint as="offset" />
          </mxGeometry>
        </mxCell>
        <mxCell id="eYlgFXyIfjPkv886gNfy-54" value="&lt;span style=&quot;background-color: rgb(251, 251, 251);&quot;&gt;Get list txOut not confirm&lt;/span&gt;" style="edgeLabel;html=1;align=center;verticalAlign=middle;resizable=0;points=[];" vertex="1" connectable="0" parent="eYlgFXyIfjPkv886gNfy-52">
          <mxGeometry x="0.1175" y="1" relative="1" as="geometry">
            <mxPoint x="-10" as="offset" />
          </mxGeometry>
        </mxCell>
        <mxCell id="eYlgFXyIfjPkv886gNfy-56" value="CDN" style="shape=umlLifeline;perimeter=lifelinePerimeter;whiteSpace=wrap;html=1;container=1;dropTarget=0;collapsible=0;recursiveResize=0;outlineConnect=0;portConstraint=eastwest;newEdgeStyle={&quot;edgeStyle&quot;:&quot;elbowEdgeStyle&quot;,&quot;elbow&quot;:&quot;vertical&quot;,&quot;curved&quot;:0,&quot;rounded&quot;:0};" vertex="1" parent="WIyWlLk6GJQsqaUBKTNV-1">
          <mxGeometry x="-240" y="270" width="100" height="1130" as="geometry" />
        </mxCell>
        <mxCell id="eYlgFXyIfjPkv886gNfy-57" value="" style="html=1;points=[[0,0,0,0,5],[0,1,0,0,-5],[1,0,0,0,5],[1,1,0,0,-5]];perimeter=orthogonalPerimeter;outlineConnect=0;targetShapes=umlLifeline;portConstraint=eastwest;newEdgeStyle={&quot;curved&quot;:0,&quot;rounded&quot;:0};" vertex="1" parent="eYlgFXyIfjPkv886gNfy-56">
          <mxGeometry x="45" y="770" width="10" height="50" as="geometry" />
        </mxCell>
        <mxCell id="eYlgFXyIfjPkv886gNfy-62" value="" style="endArrow=open;startArrow=none;endFill=0;startFill=0;endSize=8;html=1;verticalAlign=bottom;dashed=1;labelBackgroundColor=none;rounded=0;" edge="1" parent="WIyWlLk6GJQsqaUBKTNV-1" source="eYlgFXyIfjPkv886gNfy-5" target="eYlgFXyIfjPkv886gNfy-23">
          <mxGeometry x="0.0026" width="160" relative="1" as="geometry">
            <mxPoint x="-593" y="1070" as="sourcePoint" />
            <mxPoint x="-180.5" y="1070" as="targetPoint" />
            <mxPoint as="offset" />
            <Array as="points">
              <mxPoint x="-420" y="1170" />
            </Array>
          </mxGeometry>
        </mxCell>
        <mxCell id="eYlgFXyIfjPkv886gNfy-63" value="&lt;span style=&quot;background-color: rgb(251, 251, 251);&quot;&gt;Update user balance&lt;/span&gt;" style="edgeLabel;html=1;align=center;verticalAlign=middle;resizable=0;points=[];" vertex="1" connectable="0" parent="eYlgFXyIfjPkv886gNfy-62">
          <mxGeometry x="0.1175" y="1" relative="1" as="geometry">
            <mxPoint x="-10" as="offset" />
          </mxGeometry>
        </mxCell>
        <mxCell id="eYlgFXyIfjPkv886gNfy-67" value="AIOZ-BSC20" style="whiteSpace=wrap;html=1;" vertex="1" parent="WIyWlLk6GJQsqaUBKTNV-1">
          <mxGeometry x="2100" y="762" width="120" height="60" as="geometry" />
        </mxCell>
        <mxCell id="eYlgFXyIfjPkv886gNfy-68" value="NATIVE AIOZ" style="whiteSpace=wrap;html=1;" vertex="1" parent="WIyWlLk6GJQsqaUBKTNV-1">
          <mxGeometry x="2651" y="662" width="120" height="60" as="geometry" />
        </mxCell>
        <mxCell id="eYlgFXyIfjPkv886gNfy-72" style="edgeStyle=orthogonalEdgeStyle;rounded=0;orthogonalLoop=1;jettySize=auto;html=1;" edge="1" parent="WIyWlLk6GJQsqaUBKTNV-1" source="eYlgFXyIfjPkv886gNfy-69" target="eYlgFXyIfjPkv886gNfy-68">
          <mxGeometry relative="1" as="geometry" />
        </mxCell>
        <mxCell id="eYlgFXyIfjPkv886gNfy-100" style="edgeStyle=orthogonalEdgeStyle;rounded=0;orthogonalLoop=1;jettySize=auto;html=1;exitX=0.25;exitY=0;exitDx=0;exitDy=0;" edge="1" parent="WIyWlLk6GJQsqaUBKTNV-1" source="eYlgFXyIfjPkv886gNfy-69" target="klTrbKSa8jeeAFxTV1Gi-0">
          <mxGeometry relative="1" as="geometry">
            <mxPoint x="2430" y="630" as="sourcePoint" />
            <mxPoint x="2160.028571428572" y="610" as="targetPoint" />
          </mxGeometry>
        </mxCell>
        <mxCell id="eYlgFXyIfjPkv886gNfy-101" value="100 AIOZ" style="edgeLabel;html=1;align=center;verticalAlign=middle;resizable=0;points=[];" vertex="1" connectable="0" parent="eYlgFXyIfjPkv886gNfy-100">
          <mxGeometry x="-0.0645" y="-2" relative="1" as="geometry">
            <mxPoint x="-16" as="offset" />
          </mxGeometry>
        </mxCell>
        <mxCell id="eYlgFXyIfjPkv886gNfy-102" style="edgeStyle=orthogonalEdgeStyle;rounded=0;orthogonalLoop=1;jettySize=auto;html=1;exitX=0;exitY=0.75;exitDx=0;exitDy=0;entryX=0.5;entryY=0;entryDx=0;entryDy=0;" edge="1" parent="WIyWlLk6GJQsqaUBKTNV-1" source="eYlgFXyIfjPkv886gNfy-69" target="eYlgFXyIfjPkv886gNfy-67">
          <mxGeometry relative="1" as="geometry" />
        </mxCell>
        <mxCell id="eYlgFXyIfjPkv886gNfy-105" value="5 AIOZ" style="edgeLabel;html=1;align=center;verticalAlign=middle;resizable=0;points=[];" vertex="1" connectable="0" parent="eYlgFXyIfjPkv886gNfy-102">
          <mxGeometry x="0.1102" y="-3" relative="1" as="geometry">
            <mxPoint x="24" as="offset" />
          </mxGeometry>
        </mxCell>
        <mxCell id="eYlgFXyIfjPkv886gNfy-69" value="BRIDGE" style="whiteSpace=wrap;html=1;" vertex="1" parent="WIyWlLk6GJQsqaUBKTNV-1">
          <mxGeometry x="2421" y="662" width="120" height="60" as="geometry" />
        </mxCell>
        <mxCell id="eYlgFXyIfjPkv886gNfy-70" style="edgeStyle=orthogonalEdgeStyle;rounded=0;orthogonalLoop=1;jettySize=auto;html=1;" edge="1" parent="WIyWlLk6GJQsqaUBKTNV-1" source="eYlgFXyIfjPkv886gNfy-67" target="eYlgFXyIfjPkv886gNfy-69">
          <mxGeometry relative="1" as="geometry" />
        </mxCell>
        <mxCell id="eYlgFXyIfjPkv886gNfy-99" value="Gas&amp;nbsp;0.00033 BNB" style="edgeLabel;html=1;align=center;verticalAlign=middle;resizable=0;points=[];" vertex="1" connectable="0" parent="eYlgFXyIfjPkv886gNfy-70">
          <mxGeometry x="-0.3645" y="-1" relative="1" as="geometry">
            <mxPoint x="11" y="-1" as="offset" />
          </mxGeometry>
        </mxCell>
        <mxCell id="eYlgFXyIfjPkv886gNfy-74" style="edgeStyle=orthogonalEdgeStyle;rounded=0;orthogonalLoop=1;jettySize=auto;html=1;" edge="1" parent="WIyWlLk6GJQsqaUBKTNV-1" source="eYlgFXyIfjPkv886gNfy-73" target="eYlgFXyIfjPkv886gNfy-68">
          <mxGeometry relative="1" as="geometry" />
        </mxCell>
        <mxCell id="eYlgFXyIfjPkv886gNfy-76" value="Listener transaction of bridge" style="edgeLabel;html=1;align=center;verticalAlign=middle;resizable=0;points=[];" vertex="1" connectable="0" parent="eYlgFXyIfjPkv886gNfy-74">
          <mxGeometry x="0.4162" y="4" relative="1" as="geometry">
            <mxPoint x="4" as="offset" />
          </mxGeometry>
        </mxCell>
        <mxCell id="eYlgFXyIfjPkv886gNfy-73" value="Payment Services" style="ellipse;html=1;" vertex="1" parent="WIyWlLk6GJQsqaUBKTNV-1">
          <mxGeometry x="2320" y="900" width="110" height="80" as="geometry" />
        </mxCell>
        <mxCell id="eYlgFXyIfjPkv886gNfy-78" value="SOLUTION 01 - LISTENING ALL BLOCKS IN ORTHER CHAIN" style="text;html=1;align=center;verticalAlign=middle;resizable=0;points=[];autosize=1;strokeColor=none;fillColor=none;" vertex="1" parent="WIyWlLk6GJQsqaUBKTNV-1">
          <mxGeometry x="2291" y="470" width="360" height="30" as="geometry" />
        </mxCell>
        <mxCell id="eYlgFXyIfjPkv886gNfy-86" value="" style="group" vertex="1" connectable="0" parent="WIyWlLk6GJQsqaUBKTNV-1">
          <mxGeometry x="1020" y="660" width="480" height="240" as="geometry" />
        </mxCell>
        <mxCell id="eYlgFXyIfjPkv886gNfy-79" value="WALLET IN AIOZ" style="whiteSpace=wrap;html=1;" vertex="1" parent="eYlgFXyIfjPkv886gNfy-86">
          <mxGeometry x="290" width="190" height="60" as="geometry" />
        </mxCell>
        <mxCell id="eYlgFXyIfjPkv886gNfy-83" style="edgeStyle=orthogonalEdgeStyle;rounded=0;orthogonalLoop=1;jettySize=auto;html=1;entryX=0;entryY=0.75;entryDx=0;entryDy=0;" edge="1" parent="eYlgFXyIfjPkv886gNfy-86" source="eYlgFXyIfjPkv886gNfy-80" target="eYlgFXyIfjPkv886gNfy-79">
          <mxGeometry relative="1" as="geometry" />
        </mxCell>
        <mxCell id="eYlgFXyIfjPkv886gNfy-84" style="edgeStyle=orthogonalEdgeStyle;rounded=0;orthogonalLoop=1;jettySize=auto;html=1;" edge="1" parent="eYlgFXyIfjPkv886gNfy-86" source="eYlgFXyIfjPkv886gNfy-80" target="eYlgFXyIfjPkv886gNfy-81">
          <mxGeometry relative="1" as="geometry" />
        </mxCell>
        <mxCell id="eYlgFXyIfjPkv886gNfy-85" style="edgeStyle=orthogonalEdgeStyle;rounded=0;orthogonalLoop=1;jettySize=auto;html=1;entryX=0;entryY=0.5;entryDx=0;entryDy=0;" edge="1" parent="eYlgFXyIfjPkv886gNfy-86" source="eYlgFXyIfjPkv886gNfy-80" target="eYlgFXyIfjPkv886gNfy-82">
          <mxGeometry relative="1" as="geometry" />
        </mxCell>
        <mxCell id="eYlgFXyIfjPkv886gNfy-80" value="USER" style="whiteSpace=wrap;html=1;" vertex="1" parent="eYlgFXyIfjPkv886gNfy-86">
          <mxGeometry y="90" width="200" height="60" as="geometry" />
        </mxCell>
        <mxCell id="eYlgFXyIfjPkv886gNfy-81" value="WALLET IN ETHEREUM" style="whiteSpace=wrap;html=1;" vertex="1" parent="eYlgFXyIfjPkv886gNfy-86">
          <mxGeometry x="290" y="90" width="190" height="60" as="geometry" />
        </mxCell>
        <mxCell id="eYlgFXyIfjPkv886gNfy-82" value="WALLET IN BSC" style="whiteSpace=wrap;html=1;" vertex="1" parent="eYlgFXyIfjPkv886gNfy-86">
          <mxGeometry x="290" y="180" width="190" height="60" as="geometry" />
        </mxCell>
        <mxCell id="eYlgFXyIfjPkv886gNfy-106" value="100 User *&amp;nbsp; 3 =&amp;nbsp; 300 Wallet Address" style="text;html=1;align=center;verticalAlign=middle;resizable=0;points=[];autosize=1;strokeColor=none;fillColor=none;" vertex="1" parent="eYlgFXyIfjPkv886gNfy-86">
          <mxGeometry y="170" width="210" height="30" as="geometry" />
        </mxCell>
        <mxCell id="eYlgFXyIfjPkv886gNfy-107" value="1000 User *&amp;nbsp; 3 =&amp;nbsp; 3000 Wallet Address" style="text;html=1;align=center;verticalAlign=middle;resizable=0;points=[];autosize=1;strokeColor=none;fillColor=none;" vertex="1" parent="eYlgFXyIfjPkv886gNfy-86">
          <mxGeometry x="-10" y="195" width="230" height="30" as="geometry" />
        </mxCell>
        <mxCell id="eYlgFXyIfjPkv886gNfy-94" style="edgeStyle=orthogonalEdgeStyle;rounded=0;orthogonalLoop=1;jettySize=auto;html=1;" edge="1" parent="WIyWlLk6GJQsqaUBKTNV-1" source="eYlgFXyIfjPkv886gNfy-87" target="eYlgFXyIfjPkv886gNfy-90">
          <mxGeometry relative="1" as="geometry" />
        </mxCell>
        <mxCell id="eYlgFXyIfjPkv886gNfy-95" value="Listening blocks" style="edgeLabel;html=1;align=center;verticalAlign=middle;resizable=0;points=[];" vertex="1" connectable="0" parent="eYlgFXyIfjPkv886gNfy-94">
          <mxGeometry x="0.0729" y="-3" relative="1" as="geometry">
            <mxPoint as="offset" />
          </mxGeometry>
        </mxCell>
        <mxCell id="eYlgFXyIfjPkv886gNfy-96" style="edgeStyle=orthogonalEdgeStyle;rounded=0;orthogonalLoop=1;jettySize=auto;html=1;entryX=0.5;entryY=0;entryDx=0;entryDy=0;" edge="1" parent="WIyWlLk6GJQsqaUBKTNV-1" source="eYlgFXyIfjPkv886gNfy-87" target="eYlgFXyIfjPkv886gNfy-97">
          <mxGeometry relative="1" as="geometry">
            <mxPoint x="1940" y="700" as="targetPoint" />
          </mxGeometry>
        </mxCell>
        <mxCell id="eYlgFXyIfjPkv886gNfy-87" value="BLOCKS LISTENER" style="whiteSpace=wrap;html=1;" vertex="1" parent="WIyWlLk6GJQsqaUBKTNV-1">
          <mxGeometry x="1595" y="950" width="170" height="60" as="geometry" />
        </mxCell>
        <mxCell id="eYlgFXyIfjPkv886gNfy-90" value="Chain explorer" style="whiteSpace=wrap;html=1;" vertex="1" parent="WIyWlLk6GJQsqaUBKTNV-1">
          <mxGeometry x="1620" y="750" width="120" height="60" as="geometry" />
        </mxCell>
        <mxCell id="eYlgFXyIfjPkv886gNfy-91" style="edgeStyle=orthogonalEdgeStyle;rounded=0;orthogonalLoop=1;jettySize=auto;html=1;exitX=1;exitY=0.5;exitDx=0;exitDy=0;entryX=0;entryY=0.25;entryDx=0;entryDy=0;" edge="1" parent="WIyWlLk6GJQsqaUBKTNV-1" source="eYlgFXyIfjPkv886gNfy-79" target="eYlgFXyIfjPkv886gNfy-90">
          <mxGeometry relative="1" as="geometry" />
        </mxCell>
        <mxCell id="eYlgFXyIfjPkv886gNfy-92" style="edgeStyle=orthogonalEdgeStyle;rounded=0;orthogonalLoop=1;jettySize=auto;html=1;exitX=1;exitY=0.5;exitDx=0;exitDy=0;" edge="1" parent="WIyWlLk6GJQsqaUBKTNV-1" target="eYlgFXyIfjPkv886gNfy-90">
          <mxGeometry relative="1" as="geometry">
            <mxPoint x="1500" y="772" as="sourcePoint" />
            <mxPoint x="1600" y="782" as="targetPoint" />
            <Array as="points">
              <mxPoint x="1500" y="782" />
            </Array>
          </mxGeometry>
        </mxCell>
        <mxCell id="eYlgFXyIfjPkv886gNfy-93" style="edgeStyle=orthogonalEdgeStyle;rounded=0;orthogonalLoop=1;jettySize=auto;html=1;entryX=0;entryY=0.75;entryDx=0;entryDy=0;" edge="1" parent="WIyWlLk6GJQsqaUBKTNV-1" source="eYlgFXyIfjPkv886gNfy-82" target="eYlgFXyIfjPkv886gNfy-90">
          <mxGeometry relative="1" as="geometry" />
        </mxCell>
        <mxCell id="eYlgFXyIfjPkv886gNfy-121" style="edgeStyle=orthogonalEdgeStyle;rounded=0;orthogonalLoop=1;jettySize=auto;html=1;entryX=0.5;entryY=0;entryDx=0;entryDy=0;" edge="1" parent="WIyWlLk6GJQsqaUBKTNV-1" source="eYlgFXyIfjPkv886gNfy-97" target="eYlgFXyIfjPkv886gNfy-120">
          <mxGeometry relative="1" as="geometry" />
        </mxCell>
        <mxCell id="eYlgFXyIfjPkv886gNfy-97" value="List deposit transactions of user to the respective network" style="whiteSpace=wrap;html=1;" vertex="1" parent="WIyWlLk6GJQsqaUBKTNV-1">
          <mxGeometry x="1595" y="1110" width="170" height="60" as="geometry" />
        </mxCell>
        <mxCell id="eYlgFXyIfjPkv886gNfy-119" style="edgeStyle=orthogonalEdgeStyle;rounded=0;orthogonalLoop=1;jettySize=auto;html=1;entryX=0.5;entryY=0;entryDx=0;entryDy=0;" edge="1" parent="WIyWlLk6GJQsqaUBKTNV-1" source="eYlgFXyIfjPkv886gNfy-109" target="eYlgFXyIfjPkv886gNfy-118">
          <mxGeometry relative="1" as="geometry" />
        </mxCell>
        <mxCell id="eYlgFXyIfjPkv886gNfy-127" style="edgeStyle=orthogonalEdgeStyle;rounded=0;orthogonalLoop=1;jettySize=auto;html=1;" edge="1" parent="WIyWlLk6GJQsqaUBKTNV-1" source="eYlgFXyIfjPkv886gNfy-109" target="eYlgFXyIfjPkv886gNfy-129">
          <mxGeometry relative="1" as="geometry">
            <mxPoint x="1140" y="1050" as="targetPoint" />
          </mxGeometry>
        </mxCell>
        <mxCell id="eYlgFXyIfjPkv886gNfy-109" value="&lt;span style=&quot;font-size: 12px;&quot;&gt;Deposit to the primary address of the respective network&lt;/span&gt;" style="whiteSpace=wrap;html=1;" vertex="1" parent="WIyWlLk6GJQsqaUBKTNV-1">
          <mxGeometry x="1290" y="1110" width="170" height="60" as="geometry" />
        </mxCell>
        <mxCell id="eYlgFXyIfjPkv886gNfy-113" style="edgeStyle=orthogonalEdgeStyle;rounded=0;orthogonalLoop=1;jettySize=auto;html=1;" edge="1" parent="WIyWlLk6GJQsqaUBKTNV-1" source="eYlgFXyIfjPkv886gNfy-97" target="eYlgFXyIfjPkv886gNfy-109">
          <mxGeometry relative="1" as="geometry">
            <mxPoint x="1528.2000000000003" y="1150.3" as="targetPoint" />
          </mxGeometry>
        </mxCell>
        <mxCell id="eYlgFXyIfjPkv886gNfy-118" value="Add transaction to &quot;Transaction out&quot; table" style="whiteSpace=wrap;html=1;" vertex="1" parent="WIyWlLk6GJQsqaUBKTNV-1">
          <mxGeometry x="1305" y="1240" width="140" height="40" as="geometry" />
        </mxCell>
        <mxCell id="eYlgFXyIfjPkv886gNfy-120" value="Add transaction to &quot;Transaction in&quot; table" style="whiteSpace=wrap;html=1;" vertex="1" parent="WIyWlLk6GJQsqaUBKTNV-1">
          <mxGeometry x="1610" y="1240" width="140" height="40" as="geometry" />
        </mxCell>
        <mxCell id="eYlgFXyIfjPkv886gNfy-124" style="edgeStyle=orthogonalEdgeStyle;rounded=0;orthogonalLoop=1;jettySize=auto;html=1;exitX=0;exitY=0.5;exitDx=0;exitDy=0;" edge="1" parent="WIyWlLk6GJQsqaUBKTNV-1" source="eYlgFXyIfjPkv886gNfy-126" target="eYlgFXyIfjPkv886gNfy-79">
          <mxGeometry relative="1" as="geometry">
            <mxPoint x="1455.034482758621" y="510" as="sourcePoint" />
          </mxGeometry>
        </mxCell>
        <mxCell id="eYlgFXyIfjPkv886gNfy-142" style="edgeStyle=orthogonalEdgeStyle;rounded=0;orthogonalLoop=1;jettySize=auto;html=1;" edge="1" parent="WIyWlLk6GJQsqaUBKTNV-1" source="eYlgFXyIfjPkv886gNfy-126">
          <mxGeometry relative="1" as="geometry">
            <mxPoint x="1680" y="250" as="targetPoint" />
          </mxGeometry>
        </mxCell>
        <mxCell id="eYlgFXyIfjPkv886gNfy-126" value="Pool Manager" style="whiteSpace=wrap;html=1;" vertex="1" parent="WIyWlLk6GJQsqaUBKTNV-1">
          <mxGeometry x="1480" y="410" width="150" height="60" as="geometry" />
        </mxCell>
        <mxCell id="eYlgFXyIfjPkv886gNfy-143" style="edgeStyle=orthogonalEdgeStyle;rounded=0;orthogonalLoop=1;jettySize=auto;html=1;entryX=0.476;entryY=0.131;entryDx=0;entryDy=0;entryPerimeter=0;" edge="1" parent="WIyWlLk6GJQsqaUBKTNV-1" source="eYlgFXyIfjPkv886gNfy-129" target="eYlgFXyIfjPkv886gNfy-144">
          <mxGeometry relative="1" as="geometry">
            <mxPoint x="1020" y="1300" as="targetPoint" />
          </mxGeometry>
        </mxCell>
        <mxCell id="eYlgFXyIfjPkv886gNfy-129" value="Confirm transaction out and update credit for user" style="whiteSpace=wrap;html=1;" vertex="1" parent="WIyWlLk6GJQsqaUBKTNV-1">
          <mxGeometry x="1030" y="1110" width="120" height="60" as="geometry" />
        </mxCell>
        <mxCell id="eYlgFXyIfjPkv886gNfy-130" value="With aioz network we confirm transaction by get deposits cache from CDN&lt;br&gt;How to do this in ETH and BCS?" style="text;html=1;align=center;verticalAlign=middle;resizable=0;points=[];autosize=1;strokeColor=#b85450;fillColor=#f8cecc;" vertex="1" parent="WIyWlLk6GJQsqaUBKTNV-1">
          <mxGeometry x="570" y="1200" width="420" height="40" as="geometry" />
        </mxCell>
        <mxCell id="eYlgFXyIfjPkv886gNfy-131" style="edgeStyle=orthogonalEdgeStyle;rounded=0;orthogonalLoop=1;jettySize=auto;html=1;" edge="1" parent="WIyWlLk6GJQsqaUBKTNV-1" source="eYlgFXyIfjPkv886gNfy-129" target="eYlgFXyIfjPkv886gNfy-130">
          <mxGeometry relative="1" as="geometry" />
        </mxCell>
        <mxCell id="eYlgFXyIfjPkv886gNfy-134" value="User deposit to DEX and buy AIOZ" style="text;html=1;align=center;verticalAlign=middle;resizable=0;points=[];autosize=1;strokeColor=none;fillColor=none;" vertex="1" parent="WIyWlLk6GJQsqaUBKTNV-1">
          <mxGeometry x="1980" y="180" width="210" height="30" as="geometry" />
        </mxCell>
        <mxCell id="eYlgFXyIfjPkv886gNfy-136" style="edgeStyle=orthogonalEdgeStyle;rounded=0;orthogonalLoop=1;jettySize=auto;html=1;" edge="1" parent="WIyWlLk6GJQsqaUBKTNV-1" source="eYlgFXyIfjPkv886gNfy-135" target="eYlgFXyIfjPkv886gNfy-134">
          <mxGeometry relative="1" as="geometry" />
        </mxCell>
        <mxCell id="eYlgFXyIfjPkv886gNfy-135" value="How to user have a AIOZ-ERC20" style="text;html=1;align=center;verticalAlign=middle;resizable=0;points=[];autosize=1;strokeColor=none;fillColor=none;" vertex="1" parent="WIyWlLk6GJQsqaUBKTNV-1">
          <mxGeometry x="1710" y="180" width="200" height="30" as="geometry" />
        </mxCell>
        <mxCell id="eYlgFXyIfjPkv886gNfy-139" value="User withdraw AIOZ to Eth or bsc chain" style="text;html=1;align=center;verticalAlign=middle;resizable=0;points=[];autosize=1;strokeColor=none;fillColor=none;" vertex="1" parent="WIyWlLk6GJQsqaUBKTNV-1">
          <mxGeometry x="1910" y="260" width="230" height="30" as="geometry" />
        </mxCell>
        <mxCell id="eYlgFXyIfjPkv886gNfy-140" style="edgeStyle=orthogonalEdgeStyle;rounded=0;orthogonalLoop=1;jettySize=auto;html=1;entryX=0.572;entryY=0.075;entryDx=0;entryDy=0;entryPerimeter=0;" edge="1" parent="WIyWlLk6GJQsqaUBKTNV-1" source="eYlgFXyIfjPkv886gNfy-134" target="eYlgFXyIfjPkv886gNfy-139">
          <mxGeometry relative="1" as="geometry" />
        </mxCell>
        <mxCell id="eYlgFXyIfjPkv886gNfy-144" value="Handle case transaction is fail" style="text;html=1;align=center;verticalAlign=middle;resizable=0;points=[];autosize=1;strokeColor=#b85450;fillColor=#f8cecc;" vertex="1" parent="WIyWlLk6GJQsqaUBKTNV-1">
          <mxGeometry x="920" y="1360" width="180" height="30" as="geometry" />
        </mxCell>
      </root>
    </mxGraphModel>
  </diagram>
</mxfile>
